<?xml version="1.0" encoding="UTF-8" standalone="no"?>
<svg
   xmlns:dc="http://purl.org/dc/elements/1.1/"
   xmlns:cc="http://creativecommons.org/ns#"
   xmlns:rdf="http://www.w3.org/1999/02/22-rdf-syntax-ns#"
   xmlns:svg="http://www.w3.org/2000/svg"
   xmlns="http://www.w3.org/2000/svg"
   id="svg3747"
   version="1.1"
   viewBox="0 0 174.62501 52.916666"
   height="200"
   width="660">
  <defs
     id="defs3741" />
  <metadata
     id="metadata3744">
    <rdf:RDF>
      <cc:Work
         rdf:about="">
        <dc:format>image/svg+xml</dc:format>
        <dc:type
           rdf:resource="http://purl.org/dc/dcmitype/StillImage" />
        <dc:title></dc:title>
      </cc:Work>
    </rdf:RDF>
  </metadata>
  <g
     transform="translate(0,-244.08334)"
     id="layer1">
    <g
       transform="matrix(0.35277777,0,0,-0.35277777,44.605224,278.21705)"
       id="g101">
      <path
         id="path103"
         style="fill:#1d1a1e;fill-opacity:1;fill-rule:evenodd;stroke:none"
         d="m 0,0 -24.565,14.361 c 0.668,2.424 1.033,4.976 1.033,7.616 0,13.169 -8.893,24.233 -20.931,27.37 V 78.059 C -16.928,74.582 4.376,50.801 4.376,21.977 4.376,14.182 2.818,6.756 0,0 m -51.44,-34.544 c -18.158,0 -34.287,8.78 -44.48,22.376 L -71.36,2.19 c 5.065,-5.227 12.116,-8.473 19.92,-8.473 7.779,0 14.811,3.224 19.872,8.423 l 24.567,-14.364 c -10.196,-13.563 -26.306,-22.32 -44.439,-22.32 m -55.816,56.521 c 0,28.824 21.305,52.605 48.839,56.082 V 49.347 c -12.037,-3.137 -20.931,-14.201 -20.931,-27.37 0,-2.616 0.358,-5.144 1.015,-7.547 L -102.905,0.063 c -2.802,6.74 -4.351,14.143 -4.351,21.914 M 11.353,58.463 v 26.88 h -26.545 v 7.065 h -72.496 v -7.065 h -26.545 v -26.88 h -6.977 v -73.411 h 6.977 v -26.88 h 26.545 v -7.066 h 72.496 v 7.066 h 26.545 v 26.88 h 6.977 v 73.411 z" />
    </g>
    <g
       transform="matrix(0.35277777,0,0,-0.35277777,132.04796,277.85545)"
       id="g157">
      <path
         id="path159"
         style="fill:#1d1a1e;fill-opacity:1;fill-rule:nonzero;stroke:none"
         d="M 0,0 V 84.318 H 22.904 L 43.011,25.011 63.695,84.318 H 83.828 V 0 H 67.851 V 63.637 L 47.5,5.641 H 33.571 L 13.614,64.492 V 0 Z m -72.758,0 v 84.318 h 16.654 V 43.413 l 30.858,40.905 h 14.214 L -38.923,46.595 -4.077,0 h -21.45 L -56.104,41.475 V 0 Z m -59.331,33.727 h 25.844 L -119.162,67.34 Z M -157.673,0 l 32.425,84.318 h 17.369 L -75.476,0 h -17.806 l -8.65,22.504 h -34.472 L -145.059,0 Z m -48.843,0 v 84.318 h 17.329 V 11.964 h 37.075 V 0 Z" />
    </g>
    <path
       id="path161"
       style="fill:#1d1a1e;fill-opacity:1;fill-rule:evenodd;stroke:none;stroke-width:0.35277775"
       d="m 165.76653,248.10997 h 6.11329 v 29.74551 h -6.11329 z" />
    <g
       transform="matrix(0.35277777,0,0,-0.35277777,65.282274,282.61315)"
       id="g163">
      <path
         id="path165"
         style="fill:#1d1a1e;fill-opacity:1;fill-rule:nonzero;stroke:none"
         d="m 0,0 v -3.895 c -3.253,1.276 -6.148,1.915 -8.681,1.915 -4.004,0 -6.005,-1.367 -6.005,-4.1 0,-1.108 0.374,-2.001 1.124,-2.677 0.749,-0.676 2.136,-1.37 4.161,-2.083 l 2.834,-1.003 2.698,-0.933 c 4.184,-1.489 6.276,-4.008 6.276,-7.562 0,-2.702 -1.069,-4.862 -3.205,-6.479 -2.137,-1.617 -4.997,-2.425 -8.581,-2.425 -2.489,0 -5.705,0.539 -9.648,1.617 v 4.44 c 3.928,-1.792 7.189,-2.687 9.783,-2.687 2.19,0 3.936,0.436 5.241,1.31 1.304,0.873 1.957,2.045 1.957,3.518 0,1.123 -0.387,2.013 -1.159,2.665 -0.772,0.653 -2.365,1.427 -4.779,2.323 l -2.969,1.093 c -2.954,1.109 -5.005,2.247 -6.151,3.416 -1.147,1.17 -1.721,2.726 -1.721,4.669 0,2.627 0.881,4.661 2.643,6.105 1.762,1.442 4.24,2.163 7.433,2.163 C -6.155,1.39 -3.238,0.926 0,0" />
    </g>
    <g
       transform="matrix(0.35277777,0,0,-0.35277777,79.041984,292.68005)"
       id="g167">
      <path
         id="path169"
         style="fill:#1d1a1e;fill-opacity:1;fill-rule:nonzero;stroke:none"
         d="M 0,0 V 11.957 L -10.953,29.22 h 5.106 L 2.542,15.737 11.718,29.22 h 4.206 L 4.431,11.957 V 0 Z" />
    </g>
    <g
       transform="matrix(0.35277777,0,0,-0.35277777,100.54493,282.61315)"
       id="g171">
      <path
         id="path173"
         style="fill:#1d1a1e;fill-opacity:1;fill-rule:nonzero;stroke:none"
         d="m 0,0 v -3.895 c -3.254,1.276 -6.147,1.915 -8.681,1.915 -4.005,0 -6.006,-1.367 -6.006,-4.1 0,-1.108 0.375,-2.001 1.124,-2.677 0.75,-0.676 2.137,-1.37 4.162,-2.083 l 2.834,-1.003 2.699,-0.933 c 4.182,-1.489 6.275,-4.008 6.275,-7.562 0,-2.702 -1.069,-4.862 -3.206,-6.479 -2.137,-1.617 -4.996,-2.425 -8.58,-2.425 -2.489,0 -5.705,0.539 -9.648,1.617 v 4.44 c 3.928,-1.792 7.189,-2.687 9.784,-2.687 2.188,0 3.935,0.436 5.24,1.31 1.304,0.873 1.956,2.045 1.956,3.518 0,1.123 -0.386,2.013 -1.157,2.665 -0.774,0.653 -2.366,1.427 -4.78,2.323 l -2.969,1.093 c -2.954,1.109 -5.004,2.247 -6.151,3.416 -1.148,1.17 -1.721,2.726 -1.721,4.669 0,2.627 0.881,4.661 2.643,6.105 1.761,1.442 4.24,2.163 7.433,2.163 C -6.155,1.39 -3.238,0.926 0,0" />
    </g>
    <g
       transform="matrix(0.35277777,0,0,-0.35277777,114.29675,292.68005)"
       id="g175">
      <path
         id="path177"
         style="fill:#1d1a1e;fill-opacity:1;fill-rule:nonzero;stroke:none"
         d="m 0,0 v 25.85 h -11.088 v 3.37 H 15.541 V 25.85 H 4.432 V 0 Z" />
    </g>
    <g
       transform="matrix(0.35277777,0,0,-0.35277777,129.50789,292.68005)"
       id="g179">
      <path
         id="path181"
         style="fill:#1d1a1e;fill-opacity:1;fill-rule:nonzero;stroke:none"
         d="M 0,0 V 29.22 H 19.499 V 25.85 H 4.431 v -8.861 h 12.774 v -3.37 H 4.431 V 3.37 H 20.534 V 0 Z" />
    </g>
    <g
       transform="matrix(0.35277777,0,0,-0.35277777,146.19523,292.68005)"
       id="g183">
      <path
         id="path185"
         style="fill:#1d1a1e;fill-opacity:1;fill-rule:nonzero;stroke:none"
         d="m 0,0 v 29.22 h 5.331 l 6.342,-17.992 h 0.046 l 6.229,17.992 h 5.555 V 0 h -3.62 V 25.075 H 19.837 L 13.337,6.172 H 9.604 L 3.126,24.551 H 3.082 V 0 Z" />
    </g>
    <g
       transform="matrix(0.35277777,0,0,-0.35277777,171.12187,282.61315)"
       id="g187">
      <path
         id="path189"
         style="fill:#1d1a1e;fill-opacity:1;fill-rule:nonzero;stroke:none"
         d="m 0,0 v -3.895 c -3.254,1.276 -6.148,1.915 -8.682,1.915 -4.004,0 -6.005,-1.367 -6.005,-4.1 0,-1.108 0.374,-2.001 1.124,-2.677 0.75,-0.676 2.137,-1.37 4.162,-2.083 l 2.833,-1.003 2.699,-0.933 c 4.183,-1.489 6.275,-4.008 6.275,-7.562 0,-2.702 -1.068,-4.862 -3.205,-6.479 -2.137,-1.617 -4.996,-2.425 -8.58,-2.425 -2.489,0 -5.705,0.539 -9.648,1.617 v 4.44 c 3.927,-1.792 7.188,-2.687 9.783,-2.687 2.189,0 3.935,0.436 5.24,1.31 1.305,0.873 1.957,2.045 1.957,3.518 0,1.123 -0.386,2.013 -1.158,2.665 -0.773,0.653 -2.365,1.427 -4.779,2.323 l -2.969,1.093 c -2.954,1.109 -5.005,2.247 -6.151,3.416 -1.148,1.17 -1.721,2.726 -1.721,4.669 0,2.627 0.881,4.661 2.642,6.105 1.762,1.442 4.24,2.163 7.434,2.163 C -6.155,1.39 -3.238,0.926 0,0" />
    </g>
  </g>
</svg>
